<svg width="320" height="64" viewBox="0 0 320 64" fill="none" xmlns="http://www.w3.org/2000/svg">
  <rect width="320" height="64" fill="#0F172A"/>
  <g transform="translate(0 0)">
    <rect x="16" y="12" width="32" height="32" fill="#FDE68A"/>
    <rect x="20" y="16" width="8" height="8" fill="#0B1020"/>
    <rect x="36" y="16" width="8" height="8" fill="#0B1020"/>
    <rect x="24" y="30" width="16" height="4" fill="#B45309"/>
    <rect x="20" y="44" width="24" height="6" fill="#60A5FA"/>
  </g>
  <g transform="translate(64 0)">
    <rect x="16" y="12" width="32" height="32" fill="#FDE68A"/>
    <rect x="20" y="16" width="8" height="8" fill="#0B1020"/>
    <rect x="36" y="20" width="8" height="4" fill="#0B1020"/>
    <rect x="24" y="30" width="16" height="4" fill="#B45309"/>
    <rect x="20" y="44" width="24" height="6" fill="#60A5FA"/>
  </g>
  <g transform="translate(128 0)">
    <rect x="16" y="12" width="32" height="32" fill="#FDE68A"/>
    <rect x="20" y="20" width="8" height="4" fill="#0B1020"/>
    <rect x="36" y="16" width="8" height="8" fill="#0B1020"/>
    <rect x="24" y="30" width="16" height="4" fill="#B45309"/>
    <rect x="20" y="44" width="24" height="6" fill="#60A5FA"/>
  </g>
  <g transform="translate(192 0)">
    <rect x="16" y="12" width="32" height="32" fill="#FDE68A"/>
    <rect x="20" y="16" width="8" height="8" fill="#0B1020"/>
    <rect x="36" y="16" width="8" height="8" fill="#0B1020"/>
    <rect x="24" y="30" width="16" height="4" fill="#B45309"/>
    <rect x="22" y="44" width="20" height="6" fill="#60A5FA"/>
  </g>
  <g transform="translate(256 0)">
    <rect x="16" y="12" width="32" height="32" fill="#FDE68A"/>
    <rect x="20" y="16" width="8" height="8" fill="#0B1020"/>
    <rect x="36" y="16" width="8" height="8" fill="#0B1020"/>
    <rect x="24" y="30" width="16" height="4" fill="#B45309"/>
    <rect x="20" y="44" width="24" height="6" fill="#60A5FA"/>
  </g>
</svg>
